<svg viewBox="0 0 56 56" xml:space="preserve" xmlns="http://www.w3.org/2000/svg" enable-background="new 0 0 56 56"><path d="m14.2 18.8 6.9 4.4c.5.3 1.1.2 1.4-.3l5.1-7.9 3.2 4.9-3 2c-.3.2-.5.7-.4 1.1s.4.7.9.8l11 1.2h.1c.5 0 .9-.3 1-.8l2.4-10.6c.1-.4-.1-.8-.4-1.1-.4-.2-.8-.2-1.1 0l-2.5 1.8L32.9 5c-.2-.3-.5-.5-.8-.5h-9.6c-.1 0-.2.1-.3.1-.1.1-.2.1-.2.2l-7.9 12.3c-.1.2-.2.5-.1.8-.2.5-.1.8.2.9zm23.5-2.4c.2.2.4.4.7.4.3.1.6 0 .8-.2l1.1-.9-1.6 7.1-7.6-.8 1.6-1.1c.5-.3.6-.9.3-1.4l-4.6-7-3.9-5.9h7l6.2 9.8zM22.6 7.5l3.7 5.6-5 7.9-5.2-3.3 6.5-10.2zM53 39.1c0-.2 0-.3-.1-.4l-5.5-13.6c-.1-.2-.3-.4-.5-.5-.2-.1-.5-.1-.8 0l-7.5 3.1c-.5.2-.8.8-.5 1.3l3.5 8.8-5.8-.2.1-3.7c0-.4-.2-.8-.6-1-.4-.2-.8-.1-1.1.3l-7.5 8.4c-.3.4-.3 1 0 1.3L34 51c.2.2.5.3.7.3.1 0 .3 0 .4-.1.4-.2.6-.5.6-1l-.1-3.1 11 .5c.3 0 .7-.1.9-.4l5.4-7.7s0-.1.1-.1V39.1zm-12.7-9.9 5.7-2.3L50.5 38l-6.7-.2-3.5-8.6zm5.8 16.5-11.5-.5c-.3 0-.5.1-.7.3-.2.2-.3.5-.3.7v1.4l-4.9-5.4 5.1-5.7-.1 1.9c0 .6.4 1 1 1l8.3.3 7.1.2-4 5.8zM23.7 39.2l-9.4-.2 2.5-5.3 3.3 1.6c.4.2.8.1 1.1-.2.3-.3.4-.7.2-1.1l-4.7-10.2c-.2-.5-.7-.7-1.2-.5L5.2 26.6c-.4.1-.7.5-.7.9s.2.8.6 1l2.8 1.1-4.8 9.9c-.1.3-.1.7 0 1l4.9 8 .1.1v.1c.1.1.2.2.3.2.1 0 .2.1.4.1l14.6.4c.3 0 .5-.1.7-.3.2-.2.3-.4.3-.7l.2-8.1c.1-.6-.4-1.1-.9-1.1zm-13.5-9.7c.1-.2.1-.5 0-.8-.1-.3-.3-.5-.6-.6l-1.3-.5 6.9-2.3 3.2 6.9-1.7-.8c-.5-.2-1.1 0-1.3.5l-3.6 7.5-3 6.4-3.6-6 5-10.3zm12.3 17.9L10.4 47l2.9-6.1 9.3.3-.1 6.2z" fill="#48ef48" class="fill-000000"></path></svg>